<?xml version="1.0" encoding="utf-8"?>
<!-- Generator: Adobe Illustrator 23.0.0, SVG Export Plug-In . SVG Version: 6.00 Build 0)  -->
<svg version="1.1" id="Livello_1" xmlns="http://www.w3.org/2000/svg" xmlns:xlink="http://www.w3.org/1999/xlink" x="0px" y="0px"
	 viewBox="0 0 27 27" style="enable-background:new 0 0 27 27;" xml:space="preserve">
<style type="text/css">
	.st0{fill:#FFFFFF;}
</style>
<g id="XMLID_2392_">
	<g id="XMLID_2393_">
		<path id="XMLID_2398_" class="st0" d="M13.5,2.8c3.5,0,3.9,0,5.3,0.1c1.3,0.1,2,0.3,2.4,0.5c0.6,0.2,1,0.5,1.5,1
			c0.5,0.5,0.7,0.9,1,1.5C23.8,6.3,24,7,24.1,8.2c0.1,1.4,0.1,1.8,0.1,5.3s0,3.9-0.1,5.3c-0.1,1.3-0.3,2-0.5,2.4
			c-0.2,0.6-0.5,1-1,1.5c-0.5,0.5-0.9,0.7-1.5,1c-0.5,0.2-1.1,0.4-2.4,0.5c-1.4,0.1-1.8,0.1-5.3,0.1s-3.9,0-5.3-0.1
			c-1.3-0.1-2-0.3-2.4-0.5c-0.6-0.2-1-0.5-1.5-1c-0.5-0.5-0.7-0.9-1-1.5C3.2,20.7,3,20,2.9,18.7c-0.1-1.4-0.1-1.8-0.1-5.3
			s0-3.9,0.1-5.3C3,7,3.2,6.3,3.4,5.8c0.2-0.6,0.5-1,1-1.5c0.5-0.5,0.9-0.7,1.5-1C6.3,3.2,7,3,8.3,2.9C9.6,2.8,10,2.8,13.5,2.8
			 M13.5,0.5c-3.5,0-4,0-5.4,0.1C6.8,0.6,5.8,0.9,5,1.2C4.1,1.5,3.4,2,2.7,2.7S1.5,4.1,1.2,5C0.9,5.8,0.6,6.8,0.6,8.1
			C0.5,9.5,0.5,10,0.5,13.5s0,4,0.1,5.4c0.1,1.4,0.3,2.3,0.6,3.2c0.3,0.9,0.8,1.6,1.5,2.3s1.5,1.2,2.3,1.5c0.8,0.3,1.8,0.5,3.2,0.6
			s1.8,0.1,5.4,0.1s4,0,5.4-0.1c1.4-0.1,2.3-0.3,3.2-0.6c0.9-0.3,1.6-0.8,2.3-1.5s1.2-1.5,1.5-2.3c0.3-0.8,0.5-1.8,0.6-3.2
			s0.1-1.8,0.1-5.4s0-4-0.1-5.4c-0.1-1.4-0.3-2.3-0.6-3.2c-0.3-0.8-0.8-1.6-1.5-2.3S22.9,1.5,22,1.2c-0.8-0.3-1.8-0.5-3.2-0.6
			C17.5,0.5,17,0.5,13.5,0.5"/>
		<path id="XMLID_2395_" class="st0" d="M13.5,6.8c-3.7,0-6.7,3-6.7,6.7s3,6.7,6.7,6.7s6.7-3,6.7-6.7S17.2,6.8,13.5,6.8 M13.5,17.8
			c-2.4,0-4.3-1.9-4.3-4.3s1.9-4.3,4.3-4.3s4.3,1.9,4.3,4.3S15.9,17.8,13.5,17.8"/>
		<path id="XMLID_2394_" class="st0" d="M22,6.6c0,0.9-0.7,1.6-1.6,1.6c-0.9,0-1.6-0.7-1.6-1.6S19.6,5,20.4,5C21.3,5,22,5.7,22,6.6"
			/>
	</g>
</g>
</svg>
