<?xml version="1.0" encoding="utf-8"?>
<!-- Generator: Adobe Illustrator 23.0.0, SVG Export Plug-In . SVG Version: 6.00 Build 0)  -->
<svg version="1.1" id="Livello_1" xmlns="http://www.w3.org/2000/svg" xmlns:xlink="http://www.w3.org/1999/xlink" x="0px" y="0px"
	 viewBox="0 0 27 27" style="enable-background:new 0 0 27 27;" xml:space="preserve">
<style type="text/css">
	.st0{fill:#FFFFFF;}
</style>
<g id="XMLID_2296_">
	<g id="XMLID_2297_">
		<g id="XMLID_2299_">
			<rect id="XMLID_2301_" x="2.1" y="9.5" class="st0" width="4.9" height="15.8"/>
			<path id="XMLID_2300_" class="st0" d="M4.5,7.5c1.6,0,2.9-1.3,2.9-2.9S6.1,1.6,4.5,1.6S1.6,2.9,1.6,4.5S2.9,7.5,4.5,7.5z"/>
		</g>
		<path id="XMLID_2298_" class="st0" d="M14.8,17.1c0-2.2,1-3.6,3-3.6c1.8,0,2.7,1.3,2.7,3.6c0,2.3,0,8.3,0,8.3h4.9c0,0,0-5.8,0-10
			S23,9,19.6,9s-4.8,2.6-4.8,2.6V9.5h-4.7v15.8h4.7C14.8,25.4,14.8,19.5,14.8,17.1z"/>
	</g>
</g>
</svg>
