<?xml version="1.0" encoding="utf-8"?>
<!-- Generator: Adobe Illustrator 23.0.0, SVG Export Plug-In . SVG Version: 6.00 Build 0)  -->
<svg version="1.1" id="Livello_1" xmlns="http://www.w3.org/2000/svg" xmlns:xlink="http://www.w3.org/1999/xlink" x="0px" y="0px"
	 viewBox="0 0 27 27" style="enable-background:new 0 0 27 27;" xml:space="preserve">
<style type="text/css">
	.st0{fill:#FFFFFF;}
</style>
<g id="XMLID_2407_">
	<path id="XMLID_2408_" class="st0" d="M0.9,21.4c2.3,1.5,5,2.3,7.9,2.3c9.6,0,15.1-8.1,14.7-15.4c1-0.7,1.9-1.6,2.6-2.7
		c-0.9,0.4-1.9,0.7-3,0.8c1.1-0.6,1.9-1.7,2.3-2.9c-1,0.6-2.1,1-3.3,1.3c-1-1-2.3-1.6-3.8-1.6c-3.4,0-5.8,3.1-5.1,6.4
		C9,9.4,5.2,7.3,2.6,4.2c-1.4,2.3-0.7,5.4,1.6,6.9c-0.8,0-1.7-0.3-2.3-0.6c-0.1,2.4,1.7,4.6,4.2,5.1c-0.7,0.2-1.5,0.2-2.3,0.1
		c0.7,2.1,2.6,3.6,4.8,3.6C6.4,21,3.6,21.8,0.9,21.4z"/>
</g>
</svg>
