<?xml version="1.0" encoding="utf-8"?>
<!-- Generator: Adobe Illustrator 23.0.0, SVG Export Plug-In . SVG Version: 6.00 Build 0)  -->
<svg version="1.1" xmlns="http://www.w3.org/2000/svg" xmlns:xlink="http://www.w3.org/1999/xlink" x="0px" y="0px"
	 viewBox="0 0 45 27" style="enable-background:new 0 0 45 27;" xml:space="preserve">
<style type="text/css">
	.st0{fill:#FFFFFF;}
</style>
<g id="Livello_1">
	<g id="XMLID_2245_">
		<g id="XMLID_2250_">
			<path id="XMLID_2252_" class="st0" d="M40.7,4.3c-0.4-1.6-1.7-2.9-3.4-3.4c-3-0.8-14.8-0.8-14.8-0.8s-11.9,0-14.8,0.8
				C6,1.4,4.8,2.7,4.3,4.3c-0.8,3-0.8,9.2-0.8,9.2s0,6.2,0.8,9.2c0.4,1.6,1.7,2.9,3.4,3.4c3,0.8,14.8,0.8,14.8,0.8s11.9,0,14.8-0.8
				c1.6-0.4,2.9-1.7,3.4-3.4c0.8-3,0.8-9.2,0.8-9.2S41.5,7.3,40.7,4.3z"/>
		</g>
	</g>
</g>
<g id="Livello_2">
	<polygon id="XMLID_2251_" points="18.6,19.1 18.6,7.9 28.5,13.5 	"/>
</g>
</svg>
